<svg width="100" height="128" viewBox="0 0 100 128" fill="none" xmlns="http://www.w3.org/2000/svg">
<g clip-path="url(#clip0_80_17921)">
<path fill-rule="evenodd" clip-rule="evenodd" d="M85.0118 107.085H80.4895V114.45H80.4297C79.7766 113.439 78.3779 112.815 76.5928 112.815C73.1124 112.815 70.0483 115.638 70.0783 120.543C70.0783 125.059 72.8443 128 76.2963 128C78.1698 128 79.9249 127.168 80.8459 125.535H80.9058L81.114 127.671H85.0118V107.085ZM80.4297 118.488C80.4644 118.754 80.4843 119.022 80.4895 119.29V121.193C80.4972 121.543 80.4574 121.893 80.3712 122.232C80.1031 123.511 79.0623 124.402 77.7534 124.402C75.8784 124.402 74.6594 122.857 74.6594 120.389C74.6594 118.102 75.7302 116.259 77.7833 116.259C79.1806 116.259 80.163 117.271 80.4297 118.488Z" fill="black"/>
<path d="M4.55116 123.867H12.5228V127.672H0V107.643H4.55116V123.867Z" fill="black"/>
<path d="M46.3519 112.808C45.3816 112.785 44.424 113.032 43.5858 113.52C42.8505 113.975 42.213 114.57 41.7109 115.274H41.6524C41.0279 113.758 39.5394 112.807 37.6601 112.807C35.1607 112.807 33.8818 114.174 33.2573 115.096H33.1689L32.9607 113.135H29.2793V127.663H33.6807V119.207C33.6671 118.822 33.7276 118.439 33.859 118.076C34.127 117.333 34.8114 116.442 35.972 116.442C37.3978 116.442 38.0537 117.691 38.0537 119.532V127.676H42.4565V119.172C42.4556 118.779 42.5158 118.388 42.6348 118.013C42.9328 117.151 43.677 116.437 44.7179 116.437C46.175 116.437 46.8566 117.656 46.8566 119.766V127.671H51.2595V119.112C51.2609 114.773 49.1478 112.812 46.3519 112.812V112.808Z" fill="black"/>
<path fill-rule="evenodd" clip-rule="evenodd" d="M99.999 119.081V127.67H96.1007L95.8332 126.214H95.7432C94.7874 127.374 93.2949 127.998 91.5624 127.998C88.6082 127.998 86.8457 125.861 86.8457 123.539C86.8457 119.765 90.6957 118.656 95.4149 118.656V117.774C95.4149 117.001 94.9974 115.9 92.7574 115.9C91.5757 115.915 90.4099 116.178 89.3357 116.671L87.8915 114.088C88.9065 113.519 90.9065 112.807 93.5632 112.807C98.4307 112.809 99.999 115.663 99.999 119.081ZM95.5632 121.327C93.0557 121.327 91.0382 121.496 91.0282 123.339C91.0282 124.501 92.0999 124.817 93.1149 124.817C93.6332 124.82 94.139 124.662 94.5624 124.363C94.9857 124.066 95.3049 123.642 95.4749 123.153C95.5349 122.899 95.5649 122.64 95.5632 122.38V121.327Z" fill="black"/>
<path fill-rule="evenodd" clip-rule="evenodd" d="M61.7552 127.973C65.0431 127.973 68.331 125.365 68.331 120.139H68.3367C68.3666 115.687 65.8415 112.806 62.4068 112.806C60.4107 112.806 58.9179 113.609 58.0624 114.854H58.0039V107.085H53.5469V127.647H57.2055L57.3809 125.628H57.4407C58.4673 127.349 60.0827 127.973 61.7552 127.973ZM60.7015 116.281C62.786 116.281 63.7841 118.061 63.7841 120.317C63.7841 122.931 62.6121 124.415 60.7015 124.412C59.4098 124.412 58.3746 123.493 58.0895 122.276C58.0272 122.013 57.9975 121.744 58.001 121.474V119.337C57.9992 119.058 58.0289 118.779 58.0895 118.507C58.3817 117.2 59.4981 116.281 60.7015 116.281Z" fill="black"/>
<path fill-rule="evenodd" clip-rule="evenodd" d="M27.3128 119.081V127.67H23.4146L23.1495 126.214H23.0596C22.1043 127.374 20.6116 127.998 18.8806 127.998C15.9249 127.998 14.1641 125.861 14.1641 123.539C14.1641 119.765 18.0137 118.656 22.7317 118.656V117.774C22.7317 117.001 22.3139 115.9 20.0754 115.9C18.8935 115.916 17.7279 116.178 16.6535 116.671L15.2049 114.088C16.2201 113.519 18.2205 112.807 20.8781 112.807C25.7444 112.809 27.3128 115.663 27.3128 119.081ZM22.8786 121.327C20.3706 121.327 18.3531 121.496 18.3416 123.339C18.3502 124.501 19.4153 124.817 20.4291 124.817C20.9471 124.82 21.4531 124.662 21.8764 124.363C22.2996 124.066 22.6186 123.642 22.7887 123.153C22.8498 122.9 22.88 122.64 22.8786 122.38V121.327Z" fill="black"/>
<path d="M25.96 17.4202L43.36 47.9102L24 83.2202L36.46 83.2102L49.36 59.1202L63.1 83.2202H75.8L38.66 17.4102L25.96 17.4202Z" fill="black"/>
<path d="M0 0V100H100V0H0ZM91.17 91.1964H8.83V8.80357H91.17V91.1964Z" fill="black"/>
</g>
<defs>
<clipPath id="clip0_80_17921">
<rect width="100" height="128" fill="white"/>
</clipPath>
</defs>
</svg>
